<svg width="75" height="81" viewBox="0 0 75 81" fill="none" xmlns="http://www.w3.org/2000/svg">
<path d="M37.5 0.344798C37.1251 -0.430998 38.75 0.344798 38.75 0.344798C38.7544 0.346425 43.6263 2.15365 46.5986 5.47845C47.9347 6.97293 49.0692 8.6934 49.9155 10.5384C51.145 13.1835 51.7536 16.0989 51.5 19.004C51.3237 21.0376 50.9657 22.831 50.1025 24.6931L49.75 25.4004C49.4072 26.1037 49.0524 26.79 48.6631 27.4695C45.2253 32.7719 39.6424 35.1774 33.7131 36.6946C32.4656 37.0129 31.2396 37.3586 30.0203 37.7699C29.7576 37.8595 29.7575 37.8595 29.5 37.9472L28.5674 38.2538L27.7031 38.5469C26.7932 38.8514 26.0368 39.1543 25.2246 39.6626L24.5 40.1614C23.8192 40.5471 23.147 40.9347 22.4844 41.3501C18.7265 44.0794 16.2951 48.2586 15.3828 52.7082C14.6732 57.2199 15.3432 62.5455 18.127 66.3063L18.5 66.7311C18.6182 66.9054 18.7329 67.0746 18.8477 67.2438C19.6552 67.8273 19.6553 67.8274 21.4873 67.8247C21.7666 67.8191 22.0378 67.8136 22.3088 67.8081C23.2215 67.8022 24.134 67.7949 25.0466 67.7812C25.701 67.7712 26.3554 67.7627 27.0098 67.756C28.5503 67.7421 30.0909 67.7265 31.6313 67.7053C33.5809 67.6781 35.5305 67.6556 37.4802 67.6366C38.8445 67.6233 40.2088 67.6083 41.573 67.5929C41.9078 67.589 42.2327 67.5853 42.5576 67.5816C43.5064 67.5711 44.4553 67.5602 45.4041 67.5475C45.8461 67.5413 45.8462 67.5412 46.2795 67.5352C48.3294 67.5126 50.3352 67.4537 52.3496 67.0549L53.0938 66.8695C53.5661 66.7548 54.0358 66.6284 54.5 66.4851L55.25 65.993C56.6166 65.1158 57.8961 64.277 58.9102 63.0043L59.25 62.5488C59.6479 62.0439 60.0186 61.5365 60.3711 60.9997C62.9362 56.4977 63.1372 51.9856 62 47.0498H61.5C60.7636 49.3204 60.7636 49.3204 59.1455 51.2417L58.75 51.7241C58.1964 52.413 57.6253 53.0651 57 53.6923C52.1149 58.0945 46.7038 59.1871 40.301 59.1642C39.8174 59.1623 39.3337 59.1611 38.8501 59.1608C37.8354 59.161 36.8206 59.1605 35.8059 59.1577C34.4924 59.1534 33.179 59.1502 31.8655 59.1503C30.8346 59.1504 29.8036 59.1498 28.7727 59.1483C28.2824 59.1475 27.7921 59.1467 27.3018 59.1459C26.5977 59.1457 25.8937 59.1451 25.1897 59.1428C24.9714 59.142 24.7595 59.1412 24.5476 59.1404C23.6688 59.1409 22.8001 59.2522 22 58.8586C21.7992 56.3557 23.036 53.8646 24.4287 51.8385C27.7565 47.5057 32.473 45.5053 37.7812 44.6973C42.4874 43.9855 46.9663 42.4852 50.6104 39.3984C54.9654 35.3877 57.974 29.3964 58.2373 23.4967L58.25 22.6943C58.3057 20.1177 58.2747 17.8627 57.5 15.3907C57.1937 14.4654 56.7985 13.3202 56.625 12.3616C56.6332 12.3616 56.6416 12.3627 56.6504 12.3638C67.6379 18.7986 75 30.6019 75 44.0976C75 64.4782 58.2107 81 37.5 81C16.7893 81 7.21765e-06 64.4782 0 44.0976C0 25.0565 14.6551 9.38428 33.4712 7.40646C33.4804 7.41762 33.4901 7.42915 33.5 7.4413C31.8597 12.2837 27.9324 15.7627 23.7361 18.5548C22.7572 19.2012 21.7667 19.8322 20.8413 20.5522C15.3603 25.0891 12.7475 30.0646 12 36.9632C12.5 36.7172 12.5 36.7172 12.8574 36.1675C13.9508 34.2725 15.0582 32.5751 16.6768 31.0703L17.25 30.5668C18.4067 29.55 19.6472 28.7357 20.9863 27.9726C21.1663 27.8718 21.341 27.7739 21.5156 27.6761C22.486 27.1312 23.446 26.632 24.4941 26.2471C27.5819 25.159 30.9824 24.0354 33.4844 21.8947C34.106 21.3127 34.375 21.2182 35.75 19.7421C37.125 18.266 38.7254 15.6445 39.5439 13.2092C39.9074 11.7415 40.0996 10.3019 40.0994 8.88784C40.0932 6.52267 39.5473 4.22868 38.3594 1.99291C38.0641 1.44731 37.8749 1.12059 37.5 0.344798Z" fill="#BB470B"/>
<path d="M37.5 0.344798C37.1251 -0.430998 38.75 0.344798 38.75 0.344798C38.7544 0.346425 43.6263 2.15365 46.5986 5.47845C47.9347 6.97293 49.0692 8.6934 49.9155 10.5384C51.145 13.1835 51.7536 16.0989 51.5 19.004C51.3237 21.0376 50.9657 22.831 50.1025 24.6931L49.75 25.4004C49.4072 26.1037 49.0524 26.79 48.6631 27.4695C45.2253 32.7719 39.6424 35.1774 33.7131 36.6946C32.4656 37.0129 31.2396 37.3586 30.0203 37.7699C29.7576 37.8595 29.7575 37.8595 29.5 37.9472L28.5674 38.2538L27.7031 38.5469C26.7932 38.8514 26.0368 39.1543 25.2246 39.6626L24.5 40.1614C23.8192 40.5471 23.147 40.9347 22.4844 41.3501C18.7265 44.0794 16.2951 48.2586 15.3828 52.7082C14.6732 57.2199 15.3432 62.5455 18.127 66.3063L18.5 66.7311C18.6182 66.9054 18.7329 67.0746 18.8477 67.2438C19.6552 67.8273 19.6553 67.8274 21.4873 67.8247C21.7666 67.8191 22.0378 67.8136 22.3088 67.8081C23.2215 67.8022 24.134 67.7949 25.0466 67.7812C25.701 67.7712 26.3554 67.7627 27.0098 67.756C28.5503 67.7421 30.0909 67.7265 31.6313 67.7053C33.5809 67.6781 35.5305 67.6556 37.4802 67.6366C38.8445 67.6233 40.2088 67.6083 41.573 67.5929C41.9078 67.589 42.2327 67.5853 42.5576 67.5816C43.5064 67.5711 44.4553 67.5602 45.4041 67.5475C45.8461 67.5413 45.8462 67.5412 46.2795 67.5352C48.3294 67.5126 50.3352 67.4537 52.3496 67.0549L53.0938 66.8695C53.5661 66.7548 54.0358 66.6284 54.5 66.4851L55.25 65.993C56.6166 65.1158 57.8961 64.277 58.9102 63.0043L59.25 62.5488C59.6479 62.0439 60.0186 61.5365 60.3711 60.9997C62.9362 56.4977 63.1372 51.9856 62 47.0498H61.5C60.7636 49.3204 60.7636 49.3204 59.1455 51.2417L58.75 51.7241C58.1964 52.413 57.6253 53.0651 57 53.6923C52.1149 58.0945 46.7038 59.1871 40.301 59.1642C39.8174 59.1623 39.3337 59.1611 38.8501 59.1608C37.8354 59.161 36.8206 59.1605 35.8059 59.1577C34.4924 59.1534 33.179 59.1502 31.8655 59.1503C30.8346 59.1504 29.8036 59.1498 28.7727 59.1483C28.2824 59.1475 27.7921 59.1467 27.3018 59.1459C26.5977 59.1457 25.8937 59.1451 25.1897 59.1428C24.9714 59.142 24.7595 59.1412 24.5476 59.1404C23.6688 59.1409 22.8001 59.2522 22 58.8586C21.7992 56.3557 23.036 53.8646 24.4287 51.8385C27.7565 47.5057 32.473 45.5053 37.7812 44.6973C42.4874 43.9855 46.9663 42.4852 50.6104 39.3984C54.9654 35.3877 57.974 29.3964 58.2373 23.4967L58.25 22.6943C58.3057 20.1177 58.2747 17.8627 57.5 15.3907C57.1937 14.4654 56.7985 13.3202 56.625 12.3616C56.6332 12.3616 56.6416 12.3627 56.6504 12.3638C67.6379 18.7986 75 30.6019 75 44.0976C75 64.4782 58.2107 81 37.5 81C16.7893 81 7.21765e-06 64.4782 0 44.0976C0 25.0565 14.6551 9.38428 33.4712 7.40646C33.4804 7.41762 33.4901 7.42915 33.5 7.4413C31.8597 12.2837 27.9324 15.7627 23.7361 18.5548C22.7572 19.2012 21.7667 19.8322 20.8413 20.5522C15.3603 25.0891 12.7475 30.0646 12 36.9632C12.5 36.7172 12.5 36.7172 12.8574 36.1675C13.9508 34.2725 15.0582 32.5751 16.6768 31.0703L17.25 30.5668C18.4067 29.55 19.6472 28.7357 20.9863 27.9726C21.1663 27.8718 21.341 27.7739 21.5156 27.6761C22.486 27.1312 23.446 26.632 24.4941 26.2471C27.5819 25.159 30.9824 24.0354 33.4844 21.8947C34.106 21.3127 34.375 21.2182 35.75 19.7421C37.125 18.266 38.7254 15.6445 39.5439 13.2092C39.9074 11.7415 40.0996 10.3019 40.0994 8.88784C40.0932 6.52267 39.5473 4.22868 38.3594 1.99291C38.0641 1.44731 37.8749 1.12059 37.5 0.344798Z" fill="url(#paint0_radial_233_1337)"/>
<path d="M37.5 0.344798C37.1251 -0.430998 38.75 0.344798 38.75 0.344798C38.7544 0.346425 43.6263 2.15365 46.5986 5.47845C47.9347 6.97293 49.0692 8.6934 49.9155 10.5384C51.145 13.1835 51.7536 16.0989 51.5 19.004C51.3237 21.0376 50.9657 22.831 50.1025 24.6931L49.75 25.4004C49.4072 26.1037 49.0524 26.79 48.6631 27.4695C45.2253 32.7719 39.6424 35.1774 33.7131 36.6946C32.4656 37.0129 31.2396 37.3586 30.0203 37.7699C29.7576 37.8595 29.7575 37.8595 29.5 37.9472L28.5674 38.2538L27.7031 38.5469C26.7932 38.8514 26.0368 39.1543 25.2246 39.6626L24.5 40.1614C23.8192 40.5471 23.147 40.9347 22.4844 41.3501C18.7265 44.0794 16.2951 48.2586 15.3828 52.7082C14.6732 57.2199 15.3432 62.5455 18.127 66.3063L18.5 66.7311C18.6182 66.9054 18.7329 67.0746 18.8477 67.2438C19.6552 67.8273 19.6553 67.8274 21.4873 67.8247C21.7666 67.8191 22.0378 67.8136 22.3088 67.8081C23.2215 67.8022 24.134 67.7949 25.0466 67.7812C25.701 67.7712 26.3554 67.7627 27.0098 67.756C28.5503 67.7421 30.0909 67.7265 31.6313 67.7053C33.5809 67.6781 35.5305 67.6556 37.4802 67.6366C38.8445 67.6233 40.2088 67.6083 41.573 67.5929C41.9078 67.589 42.2327 67.5853 42.5576 67.5816C43.5064 67.5711 44.4553 67.5602 45.4041 67.5475C45.8461 67.5413 45.8462 67.5412 46.2795 67.5352C48.3294 67.5126 50.3352 67.4537 52.3496 67.0549L53.0938 66.8695C53.5661 66.7548 54.0358 66.6284 54.5 66.4851L55.25 65.993C56.6166 65.1158 57.8961 64.277 58.9102 63.0043L59.25 62.5488C59.6479 62.0439 60.0186 61.5365 60.3711 60.9997C62.9362 56.4977 63.1372 51.9856 62 47.0498H61.5C60.7636 49.3204 60.7636 49.3204 59.1455 51.2417L58.75 51.7241C58.1964 52.413 57.6253 53.0651 57 53.6923C52.1149 58.0945 46.7038 59.1871 40.301 59.1642C39.8174 59.1623 39.3337 59.1611 38.8501 59.1608C37.8354 59.161 36.8206 59.1605 35.8059 59.1577C34.4924 59.1534 33.179 59.1502 31.8655 59.1503C30.8346 59.1504 29.8036 59.1498 28.7727 59.1483C28.2824 59.1475 27.7921 59.1467 27.3018 59.1459C26.5977 59.1457 25.8937 59.1451 25.1897 59.1428C24.9714 59.142 24.7595 59.1412 24.5476 59.1404C23.6688 59.1409 22.8001 59.2522 22 58.8586C21.7992 56.3557 23.036 53.8646 24.4287 51.8385C27.7565 47.5057 32.473 45.5053 37.7812 44.6973C42.4874 43.9855 46.9663 42.4852 50.6104 39.3984C54.9654 35.3877 57.974 29.3964 58.2373 23.4967L58.25 22.6943C58.3057 20.1177 58.2747 17.8627 57.5 15.3907C57.1937 14.4654 56.7985 13.3202 56.625 12.3616C56.6332 12.3616 56.6416 12.3627 56.6504 12.3638C67.6379 18.7986 75 30.6019 75 44.0976C75 64.4782 58.2107 81 37.5 81C16.7893 81 7.21765e-06 64.4782 0 44.0976C0 25.0565 14.6551 9.38428 33.4712 7.40646C33.4804 7.41762 33.4901 7.42915 33.5 7.4413C31.8597 12.2837 27.9324 15.7627 23.7361 18.5548C22.7572 19.2012 21.7667 19.8322 20.8413 20.5522C15.3603 25.0891 12.7475 30.0646 12 36.9632C12.5 36.7172 12.5 36.7172 12.8574 36.1675C13.9508 34.2725 15.0582 32.5751 16.6768 31.0703L17.25 30.5668C18.4067 29.55 19.6472 28.7357 20.9863 27.9726C21.1663 27.8718 21.341 27.7739 21.5156 27.6761C22.486 27.1312 23.446 26.632 24.4941 26.2471C27.5819 25.159 30.9824 24.0354 33.4844 21.8947C34.106 21.3127 34.375 21.2182 35.75 19.7421C37.125 18.266 38.7254 15.6445 39.5439 13.2092C39.9074 11.7415 40.0996 10.3019 40.0994 8.88784C40.0932 6.52267 39.5473 4.22868 38.3594 1.99291C38.0641 1.44731 37.8749 1.12059 37.5 0.344798Z" fill="url(#paint1_linear_233_1337)"/>
<path d="M37.5 0.344798C37.1251 -0.430998 38.75 0.344798 38.75 0.344798C38.7544 0.346425 43.6263 2.15365 46.5986 5.47845C47.9347 6.97293 49.0692 8.6934 49.9155 10.5384C51.145 13.1835 51.7536 16.0989 51.5 19.004C51.3237 21.0376 50.9657 22.831 50.1025 24.6931L49.75 25.4004C49.4072 26.1037 49.0524 26.79 48.6631 27.4695C45.2253 32.7719 39.6424 35.1774 33.7131 36.6946C32.4656 37.0129 31.2396 37.3586 30.0203 37.7699C29.7576 37.8595 29.7575 37.8595 29.5 37.9472L28.5674 38.2538L27.7031 38.5469C26.7932 38.8514 26.0368 39.1543 25.2246 39.6626L24.5 40.1614C23.8192 40.5471 23.147 40.9347 22.4844 41.3501C18.7265 44.0794 16.2951 48.2586 15.3828 52.7082C14.6732 57.2199 15.3432 62.5455 18.127 66.3063L18.5 66.7311C18.6182 66.9054 18.7329 67.0746 18.8477 67.2438C19.6552 67.8273 19.6553 67.8274 21.4873 67.8247C21.7666 67.8191 22.0378 67.8136 22.3088 67.8081C23.2215 67.8022 24.134 67.7949 25.0466 67.7812C25.701 67.7712 26.3554 67.7627 27.0098 67.756C28.5503 67.7421 30.0909 67.7265 31.6313 67.7053C33.5809 67.6781 35.5305 67.6556 37.4802 67.6366C38.8445 67.6233 40.2088 67.6083 41.573 67.5929C41.9078 67.589 42.2327 67.5853 42.5576 67.5816C43.5064 67.5711 44.4553 67.5602 45.4041 67.5475C45.8461 67.5413 45.8462 67.5412 46.2795 67.5352C48.3294 67.5126 50.3352 67.4537 52.3496 67.0549L53.0938 66.8695C53.5661 66.7548 54.0358 66.6284 54.5 66.4851L55.25 65.993C56.6166 65.1158 57.8961 64.277 58.9102 63.0043L59.25 62.5488C59.6479 62.0439 60.0186 61.5365 60.3711 60.9997C62.9362 56.4977 63.1372 51.9856 62 47.0498H61.5C60.7636 49.3204 60.7636 49.3204 59.1455 51.2417L58.75 51.7241C58.1964 52.413 57.6253 53.0651 57 53.6923C52.1149 58.0945 46.7038 59.1871 40.301 59.1642C39.8174 59.1623 39.3337 59.1611 38.8501 59.1608C37.8354 59.161 36.8206 59.1605 35.8059 59.1577C34.4924 59.1534 33.179 59.1502 31.8655 59.1503C30.8346 59.1504 29.8036 59.1498 28.7727 59.1483C28.2824 59.1475 27.7921 59.1467 27.3018 59.1459C26.5977 59.1457 25.8937 59.1451 25.1897 59.1428C24.9714 59.142 24.7595 59.1412 24.5476 59.1404C23.6688 59.1409 22.8001 59.2522 22 58.8586C21.7992 56.3557 23.036 53.8646 24.4287 51.8385C27.7565 47.5057 32.473 45.5053 37.7812 44.6973C42.4874 43.9855 46.9663 42.4852 50.6104 39.3984C54.9654 35.3877 57.974 29.3964 58.2373 23.4967L58.25 22.6943C58.3057 20.1177 58.2747 17.8627 57.5 15.3907C57.1937 14.4654 56.7985 13.3202 56.625 12.3616C56.6332 12.3616 56.6416 12.3627 56.6504 12.3638C67.6379 18.7986 75 30.6019 75 44.0976C75 64.4782 58.2107 81 37.5 81C16.7893 81 7.21765e-06 64.4782 0 44.0976C0 25.0565 14.6551 9.38428 33.4712 7.40646C33.4804 7.41762 33.4901 7.42915 33.5 7.4413C31.8597 12.2837 27.9324 15.7627 23.7361 18.5548C22.7572 19.2012 21.7667 19.8322 20.8413 20.5522C15.3603 25.0891 12.7475 30.0646 12 36.9632C12.5 36.7172 12.5 36.7172 12.8574 36.1675C13.9508 34.2725 15.0582 32.5751 16.6768 31.0703L17.25 30.5668C18.4067 29.55 19.6472 28.7357 20.9863 27.9726C21.1663 27.8718 21.341 27.7739 21.5156 27.6761C22.486 27.1312 23.446 26.632 24.4941 26.2471C27.5819 25.159 30.9824 24.0354 33.4844 21.8947C34.106 21.3127 34.375 21.2182 35.75 19.7421C37.125 18.266 38.7254 15.6445 39.5439 13.2092C39.9074 11.7415 40.0996 10.3019 40.0994 8.88784C40.0932 6.52267 39.5473 4.22868 38.3594 1.99291C38.0641 1.44731 37.8749 1.12059 37.5 0.344798Z" fill="url(#paint2_linear_233_1337)" fill-opacity="0.2"/>
<defs>
<radialGradient id="paint0_radial_233_1337" cx="0" cy="0" r="1" gradientUnits="userSpaceOnUse" gradientTransform="translate(59.25 12.1778) rotate(60.3733) scale(15.4244 14.1715)">
<stop stop-color="#CD794B"/>
<stop offset="1" stop-color="#BB470B" stop-opacity="0"/>
</radialGradient>
<linearGradient id="paint1_linear_233_1337" x1="48.875" y1="7.13446" x2="27.4579" y2="37.1065" gradientUnits="userSpaceOnUse">
<stop stop-color="#CD794C"/>
<stop offset="1" stop-color="#BB470B" stop-opacity="0"/>
</linearGradient>
<linearGradient id="paint2_linear_233_1337" x1="11.375" y1="34.5652" x2="12.2224" y2="15.2518" gradientUnits="userSpaceOnUse">
<stop stop-color="#EE8047" stop-opacity="0"/>
<stop offset="1" stop-color="#BD805F"/>
</linearGradient>
</defs>
</svg>
