<svg width="400" height="81" viewBox="0 0 400 81" fill="none" xmlns="http://www.w3.org/2000/svg">
<path d="M377.789 49.5634C377.789 48.1421 378.185 46.8984 378.978 45.8324C379.771 44.7664 380.864 43.9328 382.258 43.3314C383.652 42.7028 385.251 42.3884 387.055 42.3884C387.93 42.3884 388.791 42.4704 389.638 42.6344C390.485 42.7711 391.223 42.9761 391.852 43.2494V42.3064C391.852 41.1311 391.497 40.2291 390.786 39.6004C390.075 38.9718 388.996 38.6574 387.547 38.6574C386.344 38.6574 385.21 38.8624 384.144 39.2724C383.105 39.6824 381.998 40.2701 380.823 41.0354L378.855 36.8534C380.276 35.9241 381.752 35.2271 383.283 34.7624C384.841 34.2978 386.481 34.0654 388.203 34.0654C391.428 34.0654 393.929 34.8444 395.706 36.4024C397.51 37.9331 398.412 40.1608 398.412 43.0854V48.7024C398.412 49.3584 398.508 49.8231 398.699 50.0964C398.918 50.3424 399.287 50.4928 399.806 50.5474V56.0004C399.259 56.1098 398.74 56.1918 398.248 56.2464C397.783 56.3011 397.373 56.3284 397.018 56.3284C395.788 56.3284 394.845 56.0824 394.189 55.5904C393.56 55.0984 393.164 54.4288 393 53.5814L392.877 52.6384C391.92 53.8684 390.772 54.8114 389.433 55.4674C388.121 56.0961 386.741 56.4104 385.292 56.4104C383.871 56.4104 382.586 56.1098 381.438 55.5084C380.317 54.9071 379.429 54.0871 378.773 53.0484C378.117 52.0098 377.789 50.8481 377.789 49.5634ZM390.827 50.3834C391.128 50.1374 391.374 49.8641 391.565 49.5634C391.756 49.2628 391.852 48.9758 391.852 48.7024V46.7754C391.305 46.5568 390.69 46.3928 390.007 46.2834C389.351 46.1468 388.736 46.0784 388.162 46.0784C386.959 46.0784 385.962 46.3518 385.169 46.8984C384.376 47.4178 383.98 48.1148 383.98 48.9894C383.98 49.4814 384.117 49.9324 384.39 50.3424C384.663 50.7524 385.032 51.0804 385.497 51.3264C385.989 51.5724 386.563 51.6954 387.219 51.6954C387.875 51.6954 388.531 51.5724 389.187 51.3264C389.843 51.0804 390.39 50.7661 390.827 50.3834Z" fill="black"/>
<path d="M374.373 56.0004H367.813V43.9054C367.813 42.4841 367.54 41.4591 366.993 40.8304C366.474 40.1744 365.777 39.8464 364.902 39.8464C364.301 39.8464 363.686 40.0104 363.057 40.3384C362.428 40.6664 361.854 41.1174 361.335 41.6914C360.843 42.2654 360.46 42.9214 360.187 43.6594V56.0004H353.627V34.4754H359.531V38.0834C360.078 37.2361 360.761 36.5118 361.581 35.9104C362.401 35.3091 363.344 34.8581 364.41 34.5574C365.476 34.2294 366.638 34.0654 367.895 34.0654C369.289 34.0654 370.41 34.3251 371.257 34.8444C372.132 35.3364 372.788 35.9924 373.225 36.8124C373.69 37.6324 373.99 38.5208 374.127 39.4774C374.291 40.4068 374.373 41.3224 374.373 42.2244V56.0004Z" fill="black"/>
<path d="M342.166 56.0003V34.4753H348.726V56.0003H342.166ZM342.166 32.0153V26.0703H348.726V32.0153H342.166Z" fill="black"/>
<path d="M337.469 56.0004H330.909V43.9054C330.909 42.5114 330.65 41.4864 330.13 40.8304C329.611 40.1744 328.941 39.8464 328.121 39.8464C327.247 39.8464 326.386 40.2018 325.538 40.9124C324.691 41.6231 324.09 42.5388 323.734 43.6594V56.0004H317.174V43.9054C317.174 42.4841 316.915 41.4591 316.395 40.8304C315.876 40.1744 315.206 39.8464 314.386 39.8464C313.539 39.8464 312.692 40.2018 311.844 40.9124C310.997 41.6231 310.382 42.5388 309.999 43.6594V56.0004H303.439V34.4754H309.343V38.0834C310.136 36.7988 311.202 35.8148 312.541 35.1314C313.908 34.4208 315.493 34.0654 317.297 34.0654C319.074 34.0654 320.441 34.4891 321.397 35.3364C322.354 36.1564 322.969 37.1268 323.242 38.2474C324.062 36.9081 325.142 35.8831 326.481 35.1724C327.848 34.4344 329.379 34.0654 331.073 34.0654C332.44 34.0654 333.547 34.3251 334.394 34.8444C335.242 35.3364 335.884 35.9924 336.321 36.8124C336.759 37.6324 337.059 38.5208 337.223 39.4774C337.387 40.4068 337.469 41.3224 337.469 42.2244V56.0004Z" fill="black"/>
<path d="M277.119 48.2506V34.4746H283.679V46.8156C283.679 48.1276 283.939 49.1389 284.458 49.8496C284.977 50.5329 285.715 50.8746 286.672 50.8746C287.273 50.8746 287.847 50.7789 288.394 50.5876C288.941 50.3689 289.474 50.0273 289.993 49.5626C290.512 49.0979 290.977 48.4966 291.387 47.7586V34.4746H297.947V48.7016C297.947 49.3576 298.043 49.8223 298.234 50.0956C298.453 50.3416 298.822 50.4919 299.341 50.5466V55.9996C298.74 56.1089 298.207 56.1909 297.742 56.2456C297.305 56.3003 296.908 56.3276 296.553 56.3276C295.405 56.3276 294.489 56.0953 293.806 55.6306C293.123 55.1386 292.699 54.4553 292.535 53.5806L292.412 52.2686C291.428 53.6899 290.198 54.7423 288.722 55.4256C287.273 56.0816 285.647 56.4096 283.843 56.4096C281.656 56.4096 279.989 55.7126 278.841 54.3186C277.693 52.9246 277.119 50.9019 277.119 48.2506Z" fill="black"/>
<path d="M253.061 39.3537V55.9996H246.337V26.8896H251.667L265.156 44.0276V26.8896H271.88V55.9996H266.386L253.061 39.3537Z" fill="black"/>
<path d="M232.858 54.8519C232.257 55.0979 231.587 55.3439 230.849 55.5899C230.139 55.8359 229.387 56.0273 228.594 56.1639C227.802 56.3279 227.023 56.4099 226.257 56.4099C225.164 56.4099 224.153 56.2323 223.223 55.8769C222.321 55.4943 221.597 54.8793 221.05 54.0319C220.531 53.1846 220.271 52.0639 220.271 50.6699V39.4359H217.524V34.4749H220.271V27.6279H226.831V34.4749H231.218V39.4359H226.831V48.4149C226.831 49.1256 227.009 49.6449 227.364 49.9729C227.72 50.2736 228.171 50.4239 228.717 50.4239C229.182 50.4239 229.674 50.3419 230.193 50.1779C230.74 50.0139 231.205 49.8363 231.587 49.6449L232.858 54.8519Z" fill="black"/>
<path d="M205.416 56.4104C203.585 56.4104 201.959 56.1098 200.537 55.5084C199.116 54.9071 197.9 54.0871 196.888 53.0484C195.904 52.0098 195.153 50.8208 194.633 49.4814C194.114 48.1421 193.854 46.7208 193.854 45.2174C193.854 43.2494 194.305 41.4181 195.207 39.7234C196.137 38.0288 197.462 36.6621 199.184 35.6234C200.906 34.5848 202.984 34.0654 205.416 34.0654C207.876 34.0654 209.954 34.5984 211.648 35.6644C213.37 36.7031 214.655 38.0698 215.502 39.7644L209.106 41.6914C208.696 41.0354 208.163 40.5298 207.507 40.1744C206.879 39.8191 206.168 39.6414 205.375 39.6414C204.473 39.6414 203.653 39.8738 202.915 40.3384C202.205 40.8031 201.631 41.4454 201.193 42.2654C200.783 43.0854 200.578 44.0694 200.578 45.2174C200.578 46.3381 200.797 47.3221 201.234 48.1694C201.672 49.0168 202.246 49.6864 202.956 50.1784C203.667 50.6431 204.473 50.8754 205.375 50.8754C205.922 50.8754 206.428 50.7934 206.892 50.6294C207.384 50.4381 207.822 50.1784 208.204 49.8504C208.614 49.5224 208.929 49.1534 209.147 48.7434L215.543 50.7114C215.024 51.8048 214.272 52.7888 213.288 53.6634C212.332 54.5108 211.197 55.1804 209.885 55.6724C208.573 56.1644 207.084 56.4104 205.416 56.4104Z" fill="black"/>
<path d="M180.262 56.4104C178.431 56.4104 176.805 56.1234 175.383 55.5494C173.962 54.9481 172.746 54.1418 171.734 53.1304C170.75 52.1191 169.999 50.9574 169.479 49.6454C168.96 48.3061 168.7 46.9121 168.7 45.4634C168.7 43.3861 169.151 41.5001 170.053 39.8054C170.983 38.0834 172.308 36.7031 174.03 35.6644C175.752 34.5984 177.83 34.0654 180.262 34.0654C182.695 34.0654 184.759 34.5848 186.453 35.6234C188.175 36.6621 189.487 38.0288 190.389 39.7234C191.291 41.3908 191.742 43.2084 191.742 45.1764C191.742 45.5591 191.715 45.9418 191.66 46.3244C191.633 46.6798 191.606 46.9941 191.578 47.2674H175.67C175.752 48.2241 176.012 49.0304 176.449 49.6864C176.914 50.3424 177.502 50.8481 178.212 51.2034C178.923 51.5314 179.675 51.6954 180.467 51.6954C181.451 51.6954 182.367 51.4631 183.214 50.9984C184.089 50.5338 184.69 49.9051 185.018 49.1124L190.594 50.6704C190.048 51.7911 189.269 52.7888 188.257 53.6634C187.273 54.5108 186.098 55.1804 184.731 55.6724C183.392 56.1644 181.902 56.4104 180.262 56.4104ZM175.506 43.2494H184.854C184.745 42.3474 184.485 41.5684 184.075 40.9124C183.665 40.2291 183.119 39.7098 182.435 39.3544C181.752 38.9718 181 38.7804 180.18 38.7804C179.333 38.7804 178.568 38.9718 177.884 39.3544C177.228 39.7098 176.695 40.2291 176.285 40.9124C175.875 41.5684 175.616 42.3474 175.506 43.2494Z" fill="black"/>
<path d="M157.162 64.2823C156.096 64.2823 155.071 64.1046 154.087 63.7493C153.076 63.4213 152.174 62.9156 151.381 62.2323L154.128 57.7633C154.401 58.064 154.743 58.2826 155.153 58.4193C155.536 58.556 155.932 58.6243 156.342 58.6243C156.752 58.6243 157.121 58.5286 157.449 58.3373C157.777 58.1733 158.037 57.9136 158.228 57.5583C158.419 57.203 158.515 56.8066 158.515 56.3693V34.4753H165.075V55.8773C165.075 57.5173 164.72 58.966 164.009 60.2233C163.326 61.508 162.383 62.5056 161.18 63.2163C160.005 63.927 158.665 64.2823 157.162 64.2823ZM158.515 32.0153V26.0703H165.075V32.0153H158.515Z" fill="black"/>
<path d="M143.125 56.4104C141.294 56.4104 139.654 56.1098 138.205 55.5084C136.784 54.9071 135.581 54.0871 134.597 53.0484C133.613 52.0098 132.862 50.8208 132.342 49.4814C131.85 48.1421 131.604 46.7344 131.604 45.2584C131.604 43.7551 131.85 42.3338 132.342 40.9944C132.862 39.6551 133.613 38.4661 134.597 37.4274C135.581 36.3888 136.784 35.5688 138.205 34.9674C139.654 34.3661 141.294 34.0654 143.125 34.0654C144.957 34.0654 146.583 34.3661 148.004 34.9674C149.426 35.5688 150.628 36.3888 151.612 37.4274C152.596 38.4661 153.348 39.6551 153.867 40.9944C154.387 42.3338 154.646 43.7551 154.646 45.2584C154.646 46.7344 154.387 48.1421 153.867 49.4814C153.348 50.8208 152.596 52.0098 151.612 53.0484C150.628 54.0871 149.426 54.9071 148.004 55.5084C146.583 56.1098 144.957 56.4104 143.125 56.4104ZM138.328 45.2584C138.328 46.3791 138.533 47.3631 138.943 48.2104C139.381 49.0578 139.955 49.7138 140.665 50.1784C141.376 50.6431 142.196 50.8754 143.125 50.8754C144.027 50.8754 144.834 50.6431 145.544 50.1784C146.282 49.6864 146.856 49.0168 147.266 48.1694C147.676 47.3221 147.881 46.3518 147.881 45.2584C147.881 44.1378 147.676 43.1538 147.266 42.3064C146.856 41.4591 146.282 40.8031 145.544 40.3384C144.834 39.8738 144.027 39.6414 143.125 39.6414C142.196 39.6414 141.376 39.8738 140.665 40.3384C139.955 40.8031 139.381 41.4591 138.943 42.3064C138.533 43.1538 138.328 44.1378 138.328 45.2584Z" fill="black"/>
<path d="M129.863 40.0925C128.278 40.0925 126.843 40.3521 125.558 40.8715C124.273 41.3635 123.344 42.1015 122.77 43.0855V56.0005H116.21V34.4755H122.237V38.8215C122.975 37.3728 123.932 36.2385 125.107 35.4185C126.282 34.5985 127.512 34.1748 128.797 34.1475C129.098 34.1475 129.316 34.1475 129.453 34.1475C129.617 34.1475 129.754 34.1611 129.863 34.1885V40.0925Z" fill="black"/>
<path d="M90.7881 55.9996V26.8896H103.211C104.605 26.8896 105.876 27.1766 107.024 27.7506C108.199 28.2973 109.211 29.049 110.058 30.0056C110.905 30.935 111.561 31.9873 112.026 33.1626C112.491 34.338 112.723 35.5407 112.723 36.7706C112.723 38.438 112.327 40.0233 111.534 41.5266C110.769 43.03 109.689 44.26 108.295 45.2166C106.928 46.146 105.302 46.6106 103.416 46.6106H97.5121V55.9996H90.7881ZM97.5121 40.7476H103.006C103.525 40.7476 104.004 40.5973 104.441 40.2966C104.878 39.996 105.234 39.545 105.507 38.9437C105.78 38.3423 105.917 37.6043 105.917 36.7296C105.917 35.8277 105.753 35.0896 105.425 34.5156C105.124 33.9143 104.728 33.477 104.236 33.2036C103.771 32.9303 103.279 32.7936 102.76 32.7936H97.5121V40.7476Z" fill="black"/>
<path d="M37.5 0.344798C37.1251 -0.430998 38.75 0.344798 38.75 0.344798C38.7544 0.346425 43.6263 2.15365 46.5986 5.47846C47.9347 6.97293 49.0692 8.6934 49.9155 10.5384C51.145 13.1835 51.7536 16.0989 51.5 19.004C51.3237 21.0376 50.9657 22.831 50.1025 24.6931L49.75 25.4004C49.4072 26.1037 49.0524 26.79 48.6631 27.4695C45.2253 32.7719 39.6424 35.1774 33.7131 36.6946C32.4656 37.0129 31.2396 37.3586 30.0203 37.7699C29.7576 37.8595 29.7575 37.8595 29.5 37.9473L28.5674 38.2538L27.7031 38.5469C26.7932 38.8514 26.0368 39.1543 25.2246 39.6626L24.5 40.1614C23.8192 40.5471 23.147 40.9347 22.4844 41.3501C18.7265 44.0794 16.2951 48.2586 15.3828 52.7082C14.6732 57.2199 15.3432 62.5455 18.127 66.3063L18.5 66.7311C18.6182 66.9054 18.7329 67.0746 18.8477 67.2438C19.6552 67.8273 19.6553 67.8274 21.4873 67.8247C21.7666 67.8191 22.0378 67.8136 22.3088 67.8081C23.2215 67.8022 24.134 67.7949 25.0466 67.7812C25.701 67.7712 26.3554 67.7627 27.0098 67.756C28.5503 67.7421 30.0909 67.7265 31.6313 67.7053C33.5809 67.6781 35.5305 67.6556 37.4802 67.6366C38.8445 67.6233 40.2088 67.6083 41.573 67.5929C41.9077 67.589 42.2327 67.5853 42.5576 67.5816C43.5064 67.5711 44.4553 67.5602 45.4041 67.5475C45.8461 67.5413 45.8462 67.5412 46.2795 67.5352C48.3294 67.5126 50.3352 67.4537 52.3496 67.0549L53.0938 66.8695C53.5661 66.7548 54.0358 66.6284 54.5 66.4851L55.25 65.993C56.6166 65.1158 57.8961 64.277 58.9102 63.0043L59.25 62.5488C59.6479 62.0439 60.0186 61.5365 60.3711 60.9997C62.9362 56.4977 63.1372 51.9856 62 47.0498H61.5C60.7636 49.3204 60.7636 49.3204 59.1455 51.2417L58.75 51.7241C58.1964 52.413 57.6253 53.0651 57 53.6923C52.1149 58.0945 46.7038 59.1871 40.301 59.1642C39.8174 59.1623 39.3337 59.1611 38.8501 59.1608C37.8354 59.1609 36.8206 59.1604 35.8059 59.1577C34.4924 59.1534 33.179 59.1502 31.8655 59.1502C30.8346 59.1504 29.8036 59.1498 28.7727 59.1483C28.2824 59.1475 27.7921 59.1467 27.3018 59.1459C26.5977 59.1457 25.8937 59.1451 25.1897 59.1428C24.9714 59.142 24.7595 59.1412 24.5476 59.1404C23.6688 59.1409 22.8001 59.2522 22 58.8586C21.7992 56.3557 23.036 53.8646 24.4287 51.8385C27.7565 47.5057 32.473 45.5053 37.7812 44.6973C42.4874 43.9855 46.9663 42.4852 50.6104 39.3984C54.9654 35.3877 57.974 29.3964 58.2373 23.4967L58.25 22.6943C58.3057 20.1177 58.2747 17.8627 57.5 15.3907C57.1937 14.4654 56.7985 13.3202 56.625 12.3616C56.6332 12.3616 56.6416 12.3627 56.6504 12.3638C67.6379 18.7986 75 30.6019 75 44.0976C75 64.4782 58.2107 81 37.5 81C16.7893 81 7.21765e-06 64.4782 0 44.0976C0 25.0565 14.6551 9.38428 33.4712 7.40646C33.4804 7.41762 33.4901 7.42915 33.5 7.4413C31.8597 12.2837 27.9324 15.7627 23.7361 18.5548C22.7572 19.2012 21.7667 19.8322 20.8413 20.5522C15.3603 25.0891 12.7475 30.0646 12 36.9632C12.5 36.7172 12.5 36.7172 12.8574 36.1675C13.9508 34.2725 15.0582 32.5751 16.6768 31.0703L17.25 30.5668C18.4067 29.55 19.6472 28.7357 20.9863 27.9726C21.1663 27.8718 21.341 27.7739 21.5156 27.6761C22.486 27.1312 23.446 26.632 24.4941 26.2471C27.5819 25.159 30.9824 24.0354 33.4844 21.8947C34.106 21.3127 34.375 21.2182 35.75 19.7421C37.125 18.266 38.7254 15.6445 39.5439 13.2092C39.9074 11.7415 40.0996 10.3019 40.0994 8.88784C40.0932 6.52267 39.5473 4.22868 38.3594 1.99291C38.0641 1.44731 37.8749 1.12059 37.5 0.344798Z" fill="#BB470B"/>
<path d="M37.5 0.344798C37.1251 -0.430998 38.75 0.344798 38.75 0.344798C38.7544 0.346425 43.6263 2.15365 46.5986 5.47846C47.9347 6.97293 49.0692 8.6934 49.9155 10.5384C51.145 13.1835 51.7536 16.0989 51.5 19.004C51.3237 21.0376 50.9657 22.831 50.1025 24.6931L49.75 25.4004C49.4072 26.1037 49.0524 26.79 48.6631 27.4695C45.2253 32.7719 39.6424 35.1774 33.7131 36.6946C32.4656 37.0129 31.2396 37.3586 30.0203 37.7699C29.7576 37.8595 29.7575 37.8595 29.5 37.9473L28.5674 38.2538L27.7031 38.5469C26.7932 38.8514 26.0368 39.1543 25.2246 39.6626L24.5 40.1614C23.8192 40.5471 23.147 40.9347 22.4844 41.3501C18.7265 44.0794 16.2951 48.2586 15.3828 52.7082C14.6732 57.2199 15.3432 62.5455 18.127 66.3063L18.5 66.7311C18.6182 66.9054 18.7329 67.0746 18.8477 67.2438C19.6552 67.8273 19.6553 67.8274 21.4873 67.8247C21.7666 67.8191 22.0378 67.8136 22.3088 67.8081C23.2215 67.8022 24.134 67.7949 25.0466 67.7812C25.701 67.7712 26.3554 67.7627 27.0098 67.756C28.5503 67.7421 30.0909 67.7265 31.6313 67.7053C33.5809 67.6781 35.5305 67.6556 37.4802 67.6366C38.8445 67.6233 40.2088 67.6083 41.573 67.5929C41.9077 67.589 42.2327 67.5853 42.5576 67.5816C43.5064 67.5711 44.4553 67.5602 45.4041 67.5475C45.8461 67.5413 45.8462 67.5412 46.2795 67.5352C48.3294 67.5126 50.3352 67.4537 52.3496 67.0549L53.0938 66.8695C53.5661 66.7548 54.0358 66.6284 54.5 66.4851L55.25 65.993C56.6166 65.1158 57.8961 64.277 58.9102 63.0043L59.25 62.5488C59.6479 62.0439 60.0186 61.5365 60.3711 60.9997C62.9362 56.4977 63.1372 51.9856 62 47.0498H61.5C60.7636 49.3204 60.7636 49.3204 59.1455 51.2417L58.75 51.7241C58.1964 52.413 57.6253 53.0651 57 53.6923C52.1149 58.0945 46.7038 59.1871 40.301 59.1642C39.8174 59.1623 39.3337 59.1611 38.8501 59.1608C37.8354 59.1609 36.8206 59.1604 35.8059 59.1577C34.4924 59.1534 33.179 59.1502 31.8655 59.1502C30.8346 59.1504 29.8036 59.1498 28.7727 59.1483C28.2824 59.1475 27.7921 59.1467 27.3018 59.1459C26.5977 59.1457 25.8937 59.1451 25.1897 59.1428C24.9714 59.142 24.7595 59.1412 24.5476 59.1404C23.6688 59.1409 22.8001 59.2522 22 58.8586C21.7992 56.3557 23.036 53.8646 24.4287 51.8385C27.7565 47.5057 32.473 45.5053 37.7812 44.6973C42.4874 43.9855 46.9663 42.4852 50.6104 39.3984C54.9654 35.3877 57.974 29.3964 58.2373 23.4967L58.25 22.6943C58.3057 20.1177 58.2747 17.8627 57.5 15.3907C57.1937 14.4654 56.7985 13.3202 56.625 12.3616C56.6332 12.3616 56.6416 12.3627 56.6504 12.3638C67.6379 18.7986 75 30.6019 75 44.0976C75 64.4782 58.2107 81 37.5 81C16.7893 81 7.21765e-06 64.4782 0 44.0976C0 25.0565 14.6551 9.38428 33.4712 7.40646C33.4804 7.41762 33.4901 7.42915 33.5 7.4413C31.8597 12.2837 27.9324 15.7627 23.7361 18.5548C22.7572 19.2012 21.7667 19.8322 20.8413 20.5522C15.3603 25.0891 12.7475 30.0646 12 36.9632C12.5 36.7172 12.5 36.7172 12.8574 36.1675C13.9508 34.2725 15.0582 32.5751 16.6768 31.0703L17.25 30.5668C18.4067 29.55 19.6472 28.7357 20.9863 27.9726C21.1663 27.8718 21.341 27.7739 21.5156 27.6761C22.486 27.1312 23.446 26.632 24.4941 26.2471C27.5819 25.159 30.9824 24.0354 33.4844 21.8947C34.106 21.3127 34.375 21.2182 35.75 19.7421C37.125 18.266 38.7254 15.6445 39.5439 13.2092C39.9074 11.7415 40.0996 10.3019 40.0994 8.88784C40.0932 6.52267 39.5473 4.22868 38.3594 1.99291C38.0641 1.44731 37.8749 1.12059 37.5 0.344798Z" fill="url(#paint0_radial_35_187)"/>
<path d="M37.5 0.344798C37.1251 -0.430998 38.75 0.344798 38.75 0.344798C38.7544 0.346425 43.6263 2.15365 46.5986 5.47846C47.9347 6.97293 49.0692 8.6934 49.9155 10.5384C51.145 13.1835 51.7536 16.0989 51.5 19.004C51.3237 21.0376 50.9657 22.831 50.1025 24.6931L49.75 25.4004C49.4072 26.1037 49.0524 26.79 48.6631 27.4695C45.2253 32.7719 39.6424 35.1774 33.7131 36.6946C32.4656 37.0129 31.2396 37.3586 30.0203 37.7699C29.7576 37.8595 29.7575 37.8595 29.5 37.9473L28.5674 38.2538L27.7031 38.5469C26.7932 38.8514 26.0368 39.1543 25.2246 39.6626L24.5 40.1614C23.8192 40.5471 23.147 40.9347 22.4844 41.3501C18.7265 44.0794 16.2951 48.2586 15.3828 52.7082C14.6732 57.2199 15.3432 62.5455 18.127 66.3063L18.5 66.7311C18.6182 66.9054 18.7329 67.0746 18.8477 67.2438C19.6552 67.8273 19.6553 67.8274 21.4873 67.8247C21.7666 67.8191 22.0378 67.8136 22.3088 67.8081C23.2215 67.8022 24.134 67.7949 25.0466 67.7812C25.701 67.7712 26.3554 67.7627 27.0098 67.756C28.5503 67.7421 30.0909 67.7265 31.6313 67.7053C33.5809 67.6781 35.5305 67.6556 37.4802 67.6366C38.8445 67.6233 40.2088 67.6083 41.573 67.5929C41.9077 67.589 42.2327 67.5853 42.5576 67.5816C43.5064 67.5711 44.4553 67.5602 45.4041 67.5475C45.8461 67.5413 45.8462 67.5412 46.2795 67.5352C48.3294 67.5126 50.3352 67.4537 52.3496 67.0549L53.0938 66.8695C53.5661 66.7548 54.0358 66.6284 54.5 66.4851L55.25 65.993C56.6166 65.1158 57.8961 64.277 58.9102 63.0043L59.25 62.5488C59.6479 62.0439 60.0186 61.5365 60.3711 60.9997C62.9362 56.4977 63.1372 51.9856 62 47.0498H61.5C60.7636 49.3204 60.7636 49.3204 59.1455 51.2417L58.75 51.7241C58.1964 52.413 57.6253 53.0651 57 53.6923C52.1149 58.0945 46.7038 59.1871 40.301 59.1642C39.8174 59.1623 39.3337 59.1611 38.8501 59.1608C37.8354 59.1609 36.8206 59.1604 35.8059 59.1577C34.4924 59.1534 33.179 59.1502 31.8655 59.1502C30.8346 59.1504 29.8036 59.1498 28.7727 59.1483C28.2824 59.1475 27.7921 59.1467 27.3018 59.1459C26.5977 59.1457 25.8937 59.1451 25.1897 59.1428C24.9714 59.142 24.7595 59.1412 24.5476 59.1404C23.6688 59.1409 22.8001 59.2522 22 58.8586C21.7992 56.3557 23.036 53.8646 24.4287 51.8385C27.7565 47.5057 32.473 45.5053 37.7812 44.6973C42.4874 43.9855 46.9663 42.4852 50.6104 39.3984C54.9654 35.3877 57.974 29.3964 58.2373 23.4967L58.25 22.6943C58.3057 20.1177 58.2747 17.8627 57.5 15.3907C57.1937 14.4654 56.7985 13.3202 56.625 12.3616C56.6332 12.3616 56.6416 12.3627 56.6504 12.3638C67.6379 18.7986 75 30.6019 75 44.0976C75 64.4782 58.2107 81 37.5 81C16.7893 81 7.21765e-06 64.4782 0 44.0976C0 25.0565 14.6551 9.38428 33.4712 7.40646C33.4804 7.41762 33.4901 7.42915 33.5 7.4413C31.8597 12.2837 27.9324 15.7627 23.7361 18.5548C22.7572 19.2012 21.7667 19.8322 20.8413 20.5522C15.3603 25.0891 12.7475 30.0646 12 36.9632C12.5 36.7172 12.5 36.7172 12.8574 36.1675C13.9508 34.2725 15.0582 32.5751 16.6768 31.0703L17.25 30.5668C18.4067 29.55 19.6472 28.7357 20.9863 27.9726C21.1663 27.8718 21.341 27.7739 21.5156 27.6761C22.486 27.1312 23.446 26.632 24.4941 26.2471C27.5819 25.159 30.9824 24.0354 33.4844 21.8947C34.106 21.3127 34.375 21.2182 35.75 19.7421C37.125 18.266 38.7254 15.6445 39.5439 13.2092C39.9074 11.7415 40.0996 10.3019 40.0994 8.88784C40.0932 6.52267 39.5473 4.22868 38.3594 1.99291C38.0641 1.44731 37.8749 1.12059 37.5 0.344798Z" fill="url(#paint1_linear_35_187)"/>
<path d="M37.5 0.344798C37.1251 -0.430998 38.75 0.344798 38.75 0.344798C38.7544 0.346425 43.6263 2.15365 46.5986 5.47846C47.9347 6.97293 49.0692 8.6934 49.9155 10.5384C51.145 13.1835 51.7536 16.0989 51.5 19.004C51.3237 21.0376 50.9657 22.831 50.1025 24.6931L49.75 25.4004C49.4072 26.1037 49.0524 26.79 48.6631 27.4695C45.2253 32.7719 39.6424 35.1774 33.7131 36.6946C32.4656 37.0129 31.2396 37.3586 30.0203 37.7699C29.7576 37.8595 29.7575 37.8595 29.5 37.9473L28.5674 38.2538L27.7031 38.5469C26.7932 38.8514 26.0368 39.1543 25.2246 39.6626L24.5 40.1614C23.8192 40.5471 23.147 40.9347 22.4844 41.3501C18.7265 44.0794 16.2951 48.2586 15.3828 52.7082C14.6732 57.2199 15.3432 62.5455 18.127 66.3063L18.5 66.7311C18.6182 66.9054 18.7329 67.0746 18.8477 67.2438C19.6552 67.8273 19.6553 67.8274 21.4873 67.8247C21.7666 67.8191 22.0378 67.8136 22.3088 67.8081C23.2215 67.8022 24.134 67.7949 25.0466 67.7812C25.701 67.7712 26.3554 67.7627 27.0098 67.756C28.5503 67.7421 30.0909 67.7265 31.6313 67.7053C33.5809 67.6781 35.5305 67.6556 37.4802 67.6366C38.8445 67.6233 40.2088 67.6083 41.573 67.5929C41.9077 67.589 42.2327 67.5853 42.5576 67.5816C43.5064 67.5711 44.4553 67.5602 45.4041 67.5475C45.8461 67.5413 45.8462 67.5412 46.2795 67.5352C48.3294 67.5126 50.3352 67.4537 52.3496 67.0549L53.0938 66.8695C53.5661 66.7548 54.0358 66.6284 54.5 66.4851L55.25 65.993C56.6166 65.1158 57.8961 64.277 58.9102 63.0043L59.25 62.5488C59.6479 62.0439 60.0186 61.5365 60.3711 60.9997C62.9362 56.4977 63.1372 51.9856 62 47.0498H61.5C60.7636 49.3204 60.7636 49.3204 59.1455 51.2417L58.75 51.7241C58.1964 52.413 57.6253 53.0651 57 53.6923C52.1149 58.0945 46.7038 59.1871 40.301 59.1642C39.8174 59.1623 39.3337 59.1611 38.8501 59.1608C37.8354 59.1609 36.8206 59.1604 35.8059 59.1577C34.4924 59.1534 33.179 59.1502 31.8655 59.1502C30.8346 59.1504 29.8036 59.1498 28.7727 59.1483C28.2824 59.1475 27.7921 59.1467 27.3018 59.1459C26.5977 59.1457 25.8937 59.1451 25.1897 59.1428C24.9714 59.142 24.7595 59.1412 24.5476 59.1404C23.6688 59.1409 22.8001 59.2522 22 58.8586C21.7992 56.3557 23.036 53.8646 24.4287 51.8385C27.7565 47.5057 32.473 45.5053 37.7812 44.6973C42.4874 43.9855 46.9663 42.4852 50.6104 39.3984C54.9654 35.3877 57.974 29.3964 58.2373 23.4967L58.25 22.6943C58.3057 20.1177 58.2747 17.8627 57.5 15.3907C57.1937 14.4654 56.7985 13.3202 56.625 12.3616C56.6332 12.3616 56.6416 12.3627 56.6504 12.3638C67.6379 18.7986 75 30.6019 75 44.0976C75 64.4782 58.2107 81 37.5 81C16.7893 81 7.21765e-06 64.4782 0 44.0976C0 25.0565 14.6551 9.38428 33.4712 7.40646C33.4804 7.41762 33.4901 7.42915 33.5 7.4413C31.8597 12.2837 27.9324 15.7627 23.7361 18.5548C22.7572 19.2012 21.7667 19.8322 20.8413 20.5522C15.3603 25.0891 12.7475 30.0646 12 36.9632C12.5 36.7172 12.5 36.7172 12.8574 36.1675C13.9508 34.2725 15.0582 32.5751 16.6768 31.0703L17.25 30.5668C18.4067 29.55 19.6472 28.7357 20.9863 27.9726C21.1663 27.8718 21.341 27.7739 21.5156 27.6761C22.486 27.1312 23.446 26.632 24.4941 26.2471C27.5819 25.159 30.9824 24.0354 33.4844 21.8947C34.106 21.3127 34.375 21.2182 35.75 19.7421C37.125 18.266 38.7254 15.6445 39.5439 13.2092C39.9074 11.7415 40.0996 10.3019 40.0994 8.88784C40.0932 6.52267 39.5473 4.22868 38.3594 1.99291C38.0641 1.44731 37.8749 1.12059 37.5 0.344798Z" fill="url(#paint2_linear_35_187)" fill-opacity="0.2"/>
<defs>
<radialGradient id="paint0_radial_35_187" cx="0" cy="0" r="1" gradientUnits="userSpaceOnUse" gradientTransform="translate(59.25 12.1778) rotate(60.3733) scale(15.4244 14.1715)">
<stop stop-color="#CD794B"/>
<stop offset="1" stop-color="#BB470B" stop-opacity="0"/>
</radialGradient>
<linearGradient id="paint1_linear_35_187" x1="48.875" y1="7.13446" x2="27.4579" y2="37.1065" gradientUnits="userSpaceOnUse">
<stop stop-color="#CD794C"/>
<stop offset="1" stop-color="#BB470B" stop-opacity="0"/>
</linearGradient>
<linearGradient id="paint2_linear_35_187" x1="11.375" y1="34.5652" x2="12.2224" y2="15.2518" gradientUnits="userSpaceOnUse">
<stop stop-color="#EE8047" stop-opacity="0"/>
<stop offset="1" stop-color="#BD805F"/>
</linearGradient>
</defs>
</svg>
