<svg width="66" height="69" viewBox="0 0 66 69" fill="none" xmlns="http://www.w3.org/2000/svg">
<path d="M33.0008 0.289631C32.6709 -0.362038 34.1008 0.289631 34.1008 0.289631C34.1047 0.290997 38.3921 1.80907 41.0078 4.60191C42.1835 5.85726 43.1819 7.30246 43.9267 8.85226C45.0087 11.0741 45.5443 13.5231 45.3211 15.9634C45.1659 17.6716 44.8509 19.178 44.0913 20.7422L43.7811 21.3363C43.4794 21.9271 43.1672 22.5036 42.8246 23.0744C39.7992 27.5284 34.8862 29.549 29.6682 30.8235C28.5704 31.0908 27.4915 31.3812 26.4185 31.7267C26.1873 31.802 26.1872 31.802 25.9606 31.8757L25.1399 32.1332L24.3793 32.3794C23.5786 32.6352 22.9129 32.8896 22.1982 33.3166L21.5605 33.7356C20.9614 34.0596 20.3698 34.3851 19.7867 34.7341C16.4797 37.0267 14.34 40.5372 13.5372 44.2749C12.9127 48.0647 13.5023 52.5382 15.9521 55.6973L16.2804 56.0541C16.3844 56.2005 16.4853 56.3427 16.5864 56.4848C17.297 56.9749 17.2971 56.975 18.9093 56.9728C19.1551 56.968 19.3937 56.9634 19.6322 56.9588C20.4354 56.9538 21.2384 56.9477 22.0415 56.9362C22.6174 56.9278 23.1933 56.9207 23.7692 56.915C25.1249 56.9034 26.4806 56.8903 27.8362 56.8725C29.5519 56.8496 31.2676 56.8307 32.9834 56.8147C34.184 56.8036 35.3846 56.791 36.5851 56.778C36.8798 56.7748 37.1657 56.7717 37.4516 56.7685C38.2866 56.7597 39.1216 56.7506 39.9566 56.7399C40.3455 56.7347 40.3456 56.7346 40.7269 56.7296C42.5309 56.7106 44.296 56.6611 46.0688 56.3261L46.7237 56.1704C47.1393 56.074 47.5526 55.9679 47.9612 55.8475L48.6212 55.4341C49.8238 54.6973 50.9498 53.9927 51.8422 52.9236L52.1413 52.541C52.4914 52.1169 52.8176 51.6907 53.1278 51.2397C55.3852 47.458 55.5621 43.6679 54.5613 39.5218H54.1213C53.4733 41.4291 53.4733 41.4291 52.0493 43.043L51.7012 43.4482C51.2141 44.0269 50.7115 44.5747 50.1612 45.1015C45.8622 48.7994 41.1003 49.7172 35.4657 49.6979C35.0402 49.6963 34.6145 49.6953 34.1889 49.6951C33.296 49.6952 32.4029 49.6948 31.51 49.6925C30.354 49.6889 29.1982 49.6862 28.0423 49.6862C27.1351 49.6863 26.2278 49.6858 25.3206 49.6846C24.8891 49.6839 24.4576 49.6832 24.0262 49.6826C23.4065 49.6824 22.787 49.6819 22.1675 49.68C21.9754 49.6793 21.7889 49.6786 21.6024 49.6779C20.829 49.6784 20.0646 49.7719 19.3605 49.4412C19.1838 47.3388 20.2722 45.2463 21.4978 43.5443C24.4263 39.9048 28.5769 38.2245 33.2483 37.5457C37.3898 36.9478 41.3313 35.6876 44.5382 33.0947C48.3707 29.7257 51.0183 24.693 51.2501 19.7372L51.2612 19.0632C51.3102 16.8989 51.283 15.0047 50.6012 12.9282C50.3317 12.1509 49.9839 11.189 49.8312 10.3837C49.8384 10.3837 49.8458 10.3847 49.8535 10.3856C59.5228 15.7908 66.0016 25.7056 66.0016 37.042C66.0016 54.1617 51.2266 68.04 33.0008 68.04C14.7749 68.04 6.35168e-06 54.1617 0 37.042C0 21.0475 12.8968 7.8828 29.4554 6.22143C29.4635 6.2308 29.472 6.24049 29.4807 6.25069C28.0372 10.3183 24.5811 13.2407 20.8883 15.586C20.0268 16.129 19.1552 16.659 18.3408 17.2638C13.5174 21.0748 11.2181 25.2543 10.5603 31.0491C11.0003 30.8424 11.0003 30.8424 11.3148 30.3807C12.277 28.7889 13.2515 27.3631 14.6759 26.0991L15.1804 25.6761C16.1983 24.822 17.29 24.138 18.4684 23.497C18.6268 23.4123 18.7805 23.3301 18.9342 23.2479C19.7882 22.7902 20.633 22.3709 21.5553 22.0476C24.2727 21.1336 27.2652 20.1897 29.467 18.3915C30.014 17.9027 30.2507 17.8233 31.4608 16.5834C32.6708 15.3434 34.0792 13.1414 34.7995 11.0957C35.1194 9.86286 35.2885 8.6536 35.2883 7.46579C35.2829 5.47904 34.8025 3.55209 33.7571 1.67404C33.4972 1.21574 33.3307 0.941296 33.0008 0.289631Z" fill="#B33E0E"/>
<path d="M33.0008 0.289631C32.6709 -0.362038 34.1008 0.289631 34.1008 0.289631C34.1047 0.290997 38.3921 1.80907 41.0078 4.60191C42.1835 5.85726 43.1819 7.30246 43.9267 8.85226C45.0087 11.0741 45.5443 13.5231 45.3211 15.9634C45.1659 17.6716 44.8509 19.178 44.0913 20.7422L43.7811 21.3363C43.4794 21.9271 43.1672 22.5036 42.8246 23.0744C39.7992 27.5284 34.8862 29.549 29.6682 30.8235C28.5704 31.0908 27.4915 31.3812 26.4185 31.7267C26.1873 31.802 26.1872 31.802 25.9606 31.8757L25.1399 32.1332L24.3793 32.3794C23.5786 32.6352 22.9129 32.8896 22.1982 33.3166L21.5605 33.7356C20.9614 34.0596 20.3698 34.3851 19.7867 34.7341C16.4797 37.0267 14.34 40.5372 13.5372 44.2749C12.9127 48.0647 13.5023 52.5382 15.9521 55.6973L16.2804 56.0541C16.3844 56.2005 16.4853 56.3427 16.5864 56.4848C17.297 56.9749 17.2971 56.975 18.9093 56.9728C19.1551 56.968 19.3937 56.9634 19.6322 56.9588C20.4354 56.9538 21.2384 56.9477 22.0415 56.9362C22.6174 56.9278 23.1933 56.9207 23.7692 56.915C25.1249 56.9034 26.4806 56.8903 27.8362 56.8725C29.5519 56.8496 31.2676 56.8307 32.9834 56.8147C34.184 56.8036 35.3846 56.791 36.5851 56.778C36.8798 56.7748 37.1657 56.7717 37.4516 56.7685C38.2866 56.7597 39.1216 56.7506 39.9566 56.7399C40.3455 56.7347 40.3456 56.7346 40.7269 56.7296C42.5309 56.7106 44.296 56.6611 46.0688 56.3261L46.7237 56.1704C47.1393 56.074 47.5526 55.9679 47.9612 55.8475L48.6212 55.4341C49.8238 54.6973 50.9498 53.9927 51.8422 52.9236L52.1413 52.541C52.4914 52.1169 52.8176 51.6907 53.1278 51.2397C55.3852 47.458 55.5621 43.6679 54.5613 39.5218H54.1213C53.4733 41.4291 53.4733 41.4291 52.0493 43.043L51.7012 43.4482C51.2141 44.0269 50.7115 44.5747 50.1612 45.1015C45.8622 48.7994 41.1003 49.7172 35.4657 49.6979C35.0402 49.6963 34.6145 49.6953 34.1889 49.6951C33.296 49.6952 32.4029 49.6948 31.51 49.6925C30.354 49.6889 29.1982 49.6862 28.0423 49.6862C27.1351 49.6863 26.2278 49.6858 25.3206 49.6846C24.8891 49.6839 24.4576 49.6832 24.0262 49.6826C23.4065 49.6824 22.787 49.6819 22.1675 49.68C21.9754 49.6793 21.7889 49.6786 21.6024 49.6779C20.829 49.6784 20.0646 49.7719 19.3605 49.4412C19.1838 47.3388 20.2722 45.2463 21.4978 43.5443C24.4263 39.9048 28.5769 38.2245 33.2483 37.5457C37.3898 36.9478 41.3313 35.6876 44.5382 33.0947C48.3707 29.7257 51.0183 24.693 51.2501 19.7372L51.2612 19.0632C51.3102 16.8989 51.283 15.0047 50.6012 12.9282C50.3317 12.1509 49.9839 11.189 49.8312 10.3837C49.8384 10.3837 49.8458 10.3847 49.8535 10.3856C59.5228 15.7908 66.0016 25.7056 66.0016 37.042C66.0016 54.1617 51.2266 68.04 33.0008 68.04C14.7749 68.04 6.35168e-06 54.1617 0 37.042C0 21.0475 12.8968 7.8828 29.4554 6.22143C29.4635 6.2308 29.472 6.24049 29.4807 6.25069C28.0372 10.3183 24.5811 13.2407 20.8883 15.586C20.0268 16.129 19.1552 16.659 18.3408 17.2638C13.5174 21.0748 11.2181 25.2543 10.5603 31.0491C11.0003 30.8424 11.0003 30.8424 11.3148 30.3807C12.277 28.7889 13.2515 27.3631 14.6759 26.0991L15.1804 25.6761C16.1983 24.822 17.29 24.138 18.4684 23.497C18.6268 23.4123 18.7805 23.3301 18.9342 23.2479C19.7882 22.7902 20.633 22.3709 21.5553 22.0476C24.2727 21.1336 27.2652 20.1897 29.467 18.3915C30.014 17.9027 30.2507 17.8233 31.4608 16.5834C32.6708 15.3434 34.0792 13.1414 34.7995 11.0957C35.1194 9.86286 35.2885 8.6536 35.2883 7.46579C35.2829 5.47904 34.8025 3.55209 33.7571 1.67404C33.4972 1.21574 33.3307 0.941296 33.0008 0.289631Z" fill="url(#paint0_radial_213_1650)"/>
<path d="M33.0008 0.289631C32.6709 -0.362038 34.1008 0.289631 34.1008 0.289631C34.1047 0.290997 38.3921 1.80907 41.0078 4.60191C42.1835 5.85726 43.1819 7.30246 43.9267 8.85226C45.0087 11.0741 45.5443 13.5231 45.3211 15.9634C45.1659 17.6716 44.8509 19.178 44.0913 20.7422L43.7811 21.3363C43.4794 21.9271 43.1672 22.5036 42.8246 23.0744C39.7992 27.5284 34.8862 29.549 29.6682 30.8235C28.5704 31.0908 27.4915 31.3812 26.4185 31.7267C26.1873 31.802 26.1872 31.802 25.9606 31.8757L25.1399 32.1332L24.3793 32.3794C23.5786 32.6352 22.9129 32.8896 22.1982 33.3166L21.5605 33.7356C20.9614 34.0596 20.3698 34.3851 19.7867 34.7341C16.4797 37.0267 14.34 40.5372 13.5372 44.2749C12.9127 48.0647 13.5023 52.5382 15.9521 55.6973L16.2804 56.0541C16.3844 56.2005 16.4853 56.3427 16.5864 56.4848C17.297 56.9749 17.2971 56.975 18.9093 56.9728C19.1551 56.968 19.3937 56.9634 19.6322 56.9588C20.4354 56.9538 21.2384 56.9477 22.0415 56.9362C22.6174 56.9278 23.1933 56.9207 23.7692 56.915C25.1249 56.9034 26.4806 56.8903 27.8362 56.8725C29.5519 56.8496 31.2676 56.8307 32.9834 56.8147C34.184 56.8036 35.3846 56.791 36.5851 56.778C36.8798 56.7748 37.1657 56.7717 37.4516 56.7685C38.2866 56.7597 39.1216 56.7506 39.9566 56.7399C40.3455 56.7347 40.3456 56.7346 40.7269 56.7296C42.5309 56.7106 44.296 56.6611 46.0688 56.3261L46.7237 56.1704C47.1393 56.074 47.5526 55.9679 47.9612 55.8475L48.6212 55.4341C49.8238 54.6973 50.9498 53.9927 51.8422 52.9236L52.1413 52.541C52.4914 52.1169 52.8176 51.6907 53.1278 51.2397C55.3852 47.458 55.5621 43.6679 54.5613 39.5218H54.1213C53.4733 41.4291 53.4733 41.4291 52.0493 43.043L51.7012 43.4482C51.2141 44.0269 50.7115 44.5747 50.1612 45.1015C45.8622 48.7994 41.1003 49.7172 35.4657 49.6979C35.0402 49.6963 34.6145 49.6953 34.1889 49.6951C33.296 49.6952 32.4029 49.6948 31.51 49.6925C30.354 49.6889 29.1982 49.6862 28.0423 49.6862C27.1351 49.6863 26.2278 49.6858 25.3206 49.6846C24.8891 49.6839 24.4576 49.6832 24.0262 49.6826C23.4065 49.6824 22.787 49.6819 22.1675 49.68C21.9754 49.6793 21.7889 49.6786 21.6024 49.6779C20.829 49.6784 20.0646 49.7719 19.3605 49.4412C19.1838 47.3388 20.2722 45.2463 21.4978 43.5443C24.4263 39.9048 28.5769 38.2245 33.2483 37.5457C37.3898 36.9478 41.3313 35.6876 44.5382 33.0947C48.3707 29.7257 51.0183 24.693 51.2501 19.7372L51.2612 19.0632C51.3102 16.8989 51.283 15.0047 50.6012 12.9282C50.3317 12.1509 49.9839 11.189 49.8312 10.3837C49.8384 10.3837 49.8458 10.3847 49.8535 10.3856C59.5228 15.7908 66.0016 25.7056 66.0016 37.042C66.0016 54.1617 51.2266 68.04 33.0008 68.04C14.7749 68.04 6.35168e-06 54.1617 0 37.042C0 21.0475 12.8968 7.8828 29.4554 6.22143C29.4635 6.2308 29.472 6.24049 29.4807 6.25069C28.0372 10.3183 24.5811 13.2407 20.8883 15.586C20.0268 16.129 19.1552 16.659 18.3408 17.2638C13.5174 21.0748 11.2181 25.2543 10.5603 31.0491C11.0003 30.8424 11.0003 30.8424 11.3148 30.3807C12.277 28.7889 13.2515 27.3631 14.6759 26.0991L15.1804 25.6761C16.1983 24.822 17.29 24.138 18.4684 23.497C18.6268 23.4123 18.7805 23.3301 18.9342 23.2479C19.7882 22.7902 20.633 22.3709 21.5553 22.0476C24.2727 21.1336 27.2652 20.1897 29.467 18.3915C30.014 17.9027 30.2507 17.8233 31.4608 16.5834C32.6708 15.3434 34.0792 13.1414 34.7995 11.0957C35.1194 9.86286 35.2885 8.6536 35.2883 7.46579C35.2829 5.47904 34.8025 3.55209 33.7571 1.67404C33.4972 1.21574 33.3307 0.941296 33.0008 0.289631Z" fill="url(#paint1_radial_213_1650)"/>
<path d="M33.0008 0.289631C32.6709 -0.362038 34.1008 0.289631 34.1008 0.289631C34.1047 0.290997 38.3921 1.80907 41.0078 4.60191C42.1835 5.85726 43.1819 7.30246 43.9267 8.85226C45.0087 11.0741 45.5443 13.5231 45.3211 15.9634C45.1659 17.6716 44.8509 19.178 44.0913 20.7422L43.7811 21.3363C43.4794 21.9271 43.1672 22.5036 42.8246 23.0744C39.7992 27.5284 34.8862 29.549 29.6682 30.8235C28.5704 31.0908 27.4915 31.3812 26.4185 31.7267C26.1873 31.802 26.1872 31.802 25.9606 31.8757L25.1399 32.1332L24.3793 32.3794C23.5786 32.6352 22.9129 32.8896 22.1982 33.3166L21.5605 33.7356C20.9614 34.0596 20.3698 34.3851 19.7867 34.7341C16.4797 37.0267 14.34 40.5372 13.5372 44.2749C12.9127 48.0647 13.5023 52.5382 15.9521 55.6973L16.2804 56.0541C16.3844 56.2005 16.4853 56.3427 16.5864 56.4848C17.297 56.9749 17.2971 56.975 18.9093 56.9728C19.1551 56.968 19.3937 56.9634 19.6322 56.9588C20.4354 56.9538 21.2384 56.9477 22.0415 56.9362C22.6174 56.9278 23.1933 56.9207 23.7692 56.915C25.1249 56.9034 26.4806 56.8903 27.8362 56.8725C29.5519 56.8496 31.2676 56.8307 32.9834 56.8147C34.184 56.8036 35.3846 56.791 36.5851 56.778C36.8798 56.7748 37.1657 56.7717 37.4516 56.7685C38.2866 56.7597 39.1216 56.7506 39.9566 56.7399C40.3455 56.7347 40.3456 56.7346 40.7269 56.7296C42.5309 56.7106 44.296 56.6611 46.0688 56.3261L46.7237 56.1704C47.1393 56.074 47.5526 55.9679 47.9612 55.8475L48.6212 55.4341C49.8238 54.6973 50.9498 53.9927 51.8422 52.9236L52.1413 52.541C52.4914 52.1169 52.8176 51.6907 53.1278 51.2397C55.3852 47.458 55.5621 43.6679 54.5613 39.5218H54.1213C53.4733 41.4291 53.4733 41.4291 52.0493 43.043L51.7012 43.4482C51.2141 44.0269 50.7115 44.5747 50.1612 45.1015C45.8622 48.7994 41.1003 49.7172 35.4657 49.6979C35.0402 49.6963 34.6145 49.6953 34.1889 49.6951C33.296 49.6952 32.4029 49.6948 31.51 49.6925C30.354 49.6889 29.1982 49.6862 28.0423 49.6862C27.1351 49.6863 26.2278 49.6858 25.3206 49.6846C24.8891 49.6839 24.4576 49.6832 24.0262 49.6826C23.4065 49.6824 22.787 49.6819 22.1675 49.68C21.9754 49.6793 21.7889 49.6786 21.6024 49.6779C20.829 49.6784 20.0646 49.7719 19.3605 49.4412C19.1838 47.3388 20.2722 45.2463 21.4978 43.5443C24.4263 39.9048 28.5769 38.2245 33.2483 37.5457C37.3898 36.9478 41.3313 35.6876 44.5382 33.0947C48.3707 29.7257 51.0183 24.693 51.2501 19.7372L51.2612 19.0632C51.3102 16.8989 51.283 15.0047 50.6012 12.9282C50.3317 12.1509 49.9839 11.189 49.8312 10.3837C49.8384 10.3837 49.8458 10.3847 49.8535 10.3856C59.5228 15.7908 66.0016 25.7056 66.0016 37.042C66.0016 54.1617 51.2266 68.04 33.0008 68.04C14.7749 68.04 6.35168e-06 54.1617 0 37.042C0 21.0475 12.8968 7.8828 29.4554 6.22143C29.4635 6.2308 29.472 6.24049 29.4807 6.25069C28.0372 10.3183 24.5811 13.2407 20.8883 15.586C20.0268 16.129 19.1552 16.659 18.3408 17.2638C13.5174 21.0748 11.2181 25.2543 10.5603 31.0491C11.0003 30.8424 11.0003 30.8424 11.3148 30.3807C12.277 28.7889 13.2515 27.3631 14.6759 26.0991L15.1804 25.6761C16.1983 24.822 17.29 24.138 18.4684 23.497C18.6268 23.4123 18.7805 23.3301 18.9342 23.2479C19.7882 22.7902 20.633 22.3709 21.5553 22.0476C24.2727 21.1336 27.2652 20.1897 29.467 18.3915C30.014 17.9027 30.2507 17.8233 31.4608 16.5834C32.6708 15.3434 34.0792 13.1414 34.7995 11.0957C35.1194 9.86286 35.2885 8.6536 35.2883 7.46579C35.2829 5.47904 34.8025 3.55209 33.7571 1.67404C33.4972 1.21574 33.3307 0.941296 33.0008 0.289631Z" fill="url(#paint2_radial_213_1650)"/>
<defs>
<radialGradient id="paint0_radial_213_1650" cx="0" cy="0" r="1" gradientUnits="userSpaceOnUse" gradientTransform="translate(53.2413 11.76) rotate(67.2635) scale(15.9386 15.1379)">
<stop offset="0.394231" stop-color="#CD794B"/>
<stop offset="1" stop-color="#BB470B" stop-opacity="0"/>
</radialGradient>
<radialGradient id="paint1_radial_213_1650" cx="0" cy="0" r="1" gradientUnits="userSpaceOnUse" gradientTransform="translate(43.561 6.72) rotate(114.448) scale(24.4525 25.3503)">
<stop offset="0.442308" stop-color="#CD794C"/>
<stop offset="1" stop-color="#BB470B" stop-opacity="0"/>
</radialGradient>
<radialGradient id="paint2_radial_213_1650" cx="0" cy="0" r="1" gradientUnits="userSpaceOnUse" gradientTransform="translate(19.3605 8.4) rotate(131.276) scale(20.6773 19.2807)">
<stop offset="0.307692" stop-color="#BD805F"/>
<stop offset="1" stop-color="#EE8047" stop-opacity="0"/>
</radialGradient>
</defs>
</svg>
