<svg width="914" height="116" viewBox="0 0 914 116" fill="none" xmlns="http://www.w3.org/2000/svg">
<g filter="url(#filter0_d_194_1280)">
<path d="M839.934 67.964C839.934 63.8682 841.081 60.2841 843.38 57.2122C845.678 54.1403 848.846 51.738 852.887 50.005C856.927 48.1935 861.562 47.2875 866.79 47.2875C869.327 47.2875 871.822 47.5238 874.277 47.9964C876.732 48.3903 878.871 48.9811 880.694 49.7687V47.0512C880.694 43.6643 879.665 41.0649 877.605 39.2532C875.544 37.4417 872.416 36.5357 868.216 36.5357C864.73 36.5357 861.443 37.1265 858.353 38.308C855.342 39.4895 852.133 41.1831 848.727 43.3885L843.023 31.337C847.142 28.659 851.42 26.6505 855.858 25.3113C860.373 23.9725 865.127 23.3027 870.118 23.3027C879.465 23.3027 886.714 25.5476 891.865 30.0374C897.094 34.4485 899.708 40.8681 899.708 49.2961V65.4828C899.708 67.3732 899.986 68.7124 900.54 69.5C901.175 70.2089 902.244 70.6423 903.748 70.7996V86.5138C902.163 86.829 900.659 87.0653 899.233 87.2227C897.885 87.3803 896.696 87.459 895.668 87.459C892.102 87.459 889.369 86.7501 887.468 85.3322C885.645 83.9144 884.497 81.9848 884.022 79.5428L883.665 76.8253C880.891 80.3699 877.564 83.0874 873.683 84.9778C869.88 86.7895 865.88 87.6953 861.68 87.6953C857.562 87.6953 853.837 86.829 850.51 85.0959C847.261 83.3631 844.687 81.0001 842.786 78.0069C840.884 75.0139 839.934 71.6662 839.934 67.964ZM877.723 70.327C878.596 69.6181 879.309 68.8305 879.862 67.964C880.416 67.0977 880.694 66.2707 880.694 65.4828V59.9297C879.109 59.2997 877.326 58.8271 875.347 58.5119C873.445 58.1182 871.663 57.9211 869.999 57.9211C866.512 57.9211 863.622 58.709 861.324 60.2841C859.026 61.7809 857.878 63.7895 857.878 66.3099C857.878 67.7277 858.275 69.0273 859.066 70.2089C859.857 71.3904 860.927 72.3356 862.275 73.0445C863.701 73.7534 865.364 74.1079 867.266 74.1079C869.167 74.1079 871.069 73.7534 872.97 73.0445C874.871 72.3356 876.457 71.4299 877.723 70.327Z" fill="white"/>
<path d="M830.032 86.5138H811.018V51.6591C811.018 47.5633 810.227 44.6095 808.642 42.7977C807.138 40.9073 805.117 39.9621 802.581 39.9621C800.839 39.9621 799.057 40.4347 797.234 41.3799C795.41 42.3251 793.747 43.6248 792.242 45.2789C790.816 46.933 789.706 48.8235 788.915 50.9502V86.5138H769.901V24.4842H787.014V34.8816C788.599 32.4399 790.579 30.3526 792.955 28.6196C795.332 26.8868 798.065 25.5871 801.155 24.7206C804.245 23.7753 807.613 23.3027 811.256 23.3027C815.297 23.3027 818.546 24.0511 821.001 25.5476C823.537 26.9654 825.438 28.8559 826.705 31.2189C828.053 33.5819 828.922 36.1421 829.319 38.8987C829.795 41.577 830.032 44.2155 830.032 46.8149V86.5138Z" fill="white"/>
<path d="M736.683 86.5162V24.4867H755.696V86.5162H736.683ZM736.683 17.3976V0.265625H755.696V17.3976H736.683Z" fill="white"/>
<path d="M723.07 86.5138H704.056V51.6591C704.056 47.6419 703.306 44.6881 701.798 42.7977C700.294 40.9073 698.352 39.9621 695.975 39.9621C693.442 39.9621 690.947 40.9863 688.489 43.034C686.034 45.0821 684.292 47.7209 683.26 50.9502V86.5138H664.246V51.6591C664.246 47.5633 663.496 44.6095 661.988 42.7977C660.484 40.9073 658.542 39.9621 656.165 39.9621C653.71 39.9621 651.255 40.9863 648.798 43.034C646.343 45.0821 644.56 47.7209 643.45 50.9502V86.5138H624.436V24.4842H641.549V34.8816C643.847 31.1797 646.937 28.3441 650.818 26.3747C654.78 24.3269 659.374 23.3027 664.603 23.3027C669.753 23.3027 673.715 24.5237 676.486 26.9654C679.26 29.3285 681.043 32.1249 681.834 35.3542C684.211 31.4947 687.341 28.5409 691.222 26.4928C695.184 24.3661 699.622 23.3027 704.532 23.3027C708.494 23.3027 711.702 24.0511 714.157 25.5476C716.615 26.9654 718.476 28.8559 719.743 31.2189C721.012 33.5819 721.882 36.1421 722.357 38.8987C722.832 41.577 723.07 44.2155 723.07 46.8149V86.5138Z" fill="white"/>
<path d="M548.149 64.1891V24.4902H567.162V60.0538C567.162 63.8347 567.916 66.749 569.42 68.797C570.925 70.7661 573.064 71.7508 575.837 71.7508C577.579 71.7508 579.243 71.475 580.829 70.9238C582.414 70.2935 583.959 69.3091 585.463 67.97C586.967 66.6308 588.315 64.898 589.504 62.7713V24.4902H608.517V65.4888C608.517 67.3792 608.796 68.7184 609.349 69.5059C609.984 70.2148 611.053 70.648 612.558 70.8056V86.5197C610.816 86.8347 609.271 87.071 607.923 87.2287C606.656 87.3863 605.506 87.465 604.477 87.465C601.149 87.465 598.494 86.7955 596.515 85.4564C594.535 84.0386 593.306 82.0695 592.831 79.5488L592.474 75.768C589.622 79.8638 586.057 82.8965 581.779 84.8656C577.579 86.7561 572.866 87.7013 567.638 87.7013C561.299 87.7013 556.467 85.6927 553.14 81.6755C549.812 77.6584 548.149 71.8295 548.149 64.1891Z" fill="white"/>
<path d="M478.418 38.5479V86.5174H458.929V2.62988H474.378L513.475 52.0172V2.62988H532.964V86.5174H517.04L478.418 38.5479Z" fill="white"/>
<path d="M419.862 83.2045C418.12 83.9134 416.178 84.6223 414.039 85.3312C411.981 86.0402 409.802 86.5917 407.503 86.9854C405.208 87.458 402.95 87.6943 400.729 87.6943C397.561 87.6943 394.631 87.1825 391.936 86.1583C389.321 85.0557 387.223 83.2835 385.637 80.8415C384.133 78.3998 383.379 75.1702 383.379 71.1531V38.7796H375.417V24.4832H383.379V4.75195H402.393V24.4832H415.109V38.7796H402.393V64.6547C402.393 66.7028 402.909 68.1993 403.938 69.1445C404.97 70.011 406.277 70.4442 407.86 70.4442C409.207 70.4442 410.633 70.2079 412.138 69.7353C413.723 69.2626 415.071 68.7509 416.178 68.1993L419.862 83.2045Z" fill="white"/>
<path d="M340.321 87.6953C335.014 87.6953 330.301 86.829 326.179 85.0959C322.061 83.3631 318.536 81.0001 315.603 78.0069C312.751 75.0139 310.574 71.5875 309.067 67.7277C307.563 63.8682 306.809 59.7723 306.809 55.4399C306.809 49.7687 308.116 44.4913 310.731 39.6076C313.426 34.7242 317.267 30.7858 322.258 27.7925C327.249 24.7995 333.272 23.3027 340.321 23.3027C347.451 23.3027 353.474 24.8387 358.384 27.9106C363.375 30.9039 367.099 34.8424 369.554 39.7258L351.016 45.2789C349.828 43.3885 348.283 41.9315 346.381 40.9073C344.561 39.8834 342.5 39.3713 340.202 39.3713C337.588 39.3713 335.211 40.0411 333.072 41.3799C331.014 42.7191 329.35 44.57 328.081 46.933C326.892 49.2961 326.298 52.1317 326.298 55.4399C326.298 58.6695 326.933 61.5051 328.199 63.9468C329.469 66.3888 331.133 68.3184 333.191 69.7362C335.251 71.0754 337.588 71.7448 340.202 71.7448C341.787 71.7448 343.254 71.5085 344.599 71.0359C346.025 70.4846 347.294 69.7363 348.402 68.791C349.59 67.8458 350.503 66.7825 351.135 65.601L369.673 71.2722C368.169 74.4231 365.989 77.2588 363.137 79.7791C360.366 82.2211 357.077 84.1507 353.274 85.5686C349.471 86.9864 345.155 87.6953 340.321 87.6953Z" fill="white"/>
<path d="M267.415 87.6953C262.108 87.6953 257.396 86.8682 253.274 85.2141C249.155 83.4813 245.631 81.1578 242.698 78.2432C239.846 75.3289 237.669 71.9811 236.162 68.2003C234.657 64.3408 233.904 60.3236 233.904 56.1488C233.904 50.1626 235.211 44.7276 237.825 39.8439C240.521 34.8816 244.361 30.9039 249.352 27.9106C254.344 24.8387 260.366 23.3027 267.415 23.3027C274.467 23.3027 280.45 24.7995 285.36 27.7925C290.351 30.7858 294.154 34.7242 296.768 39.6076C299.382 44.4127 300.689 49.6505 300.689 55.3218C300.689 56.4246 300.611 57.5275 300.452 58.63C300.374 59.6542 300.295 60.5599 300.214 61.3475H254.106C254.344 64.1045 255.097 66.428 256.364 68.3184C257.712 70.2089 259.416 71.6662 261.474 72.69C263.534 73.6353 265.714 74.1079 268.01 74.1079C270.862 74.1079 273.517 73.4384 275.972 72.0993C278.508 70.7604 280.25 68.9487 281.2 66.6643L297.362 71.1541C295.78 74.3836 293.522 77.2588 290.588 79.7791C287.736 82.2211 284.331 84.1507 280.369 85.5686C276.488 86.9864 272.169 87.6953 267.415 87.6953ZM253.631 49.7687H280.725C280.409 47.1693 279.656 44.9244 278.467 43.034C277.279 41.0649 275.696 39.5684 273.714 38.5443C271.734 37.4417 269.554 36.8902 267.178 36.8902C264.723 36.8902 262.506 37.4417 260.523 38.5443C258.622 39.5684 257.077 41.0649 255.888 43.034C254.7 44.9244 253.949 47.1693 253.631 49.7687Z" fill="white"/>
<path d="M200.461 110.383C197.371 110.383 194.401 109.871 191.549 108.847C188.618 107.902 186.004 106.444 183.705 104.475L191.667 91.5967C192.459 92.4632 193.45 93.0932 194.638 93.4871C195.748 93.8811 196.896 94.0779 198.084 94.0779C199.273 94.0779 200.342 93.8021 201.293 93.2508C202.244 92.7782 202.997 92.0298 203.551 91.006C204.104 89.9821 204.383 88.8397 204.383 87.5796V24.4867H223.396V86.1617C223.396 90.8878 222.368 95.0626 220.307 98.6858C218.327 102.388 215.594 105.263 212.107 107.311C208.701 109.359 204.818 110.383 200.461 110.383ZM204.383 17.3976V0.265625H223.396V17.3976H204.383Z" fill="white"/>
<path d="M159.775 87.6953C154.468 87.6953 149.714 86.829 145.514 85.0959C141.396 83.3631 137.909 81.0001 135.057 78.0069C132.205 75.0139 130.028 71.5875 128.521 67.7277C127.095 63.8682 126.382 59.8115 126.382 55.5581C126.382 51.226 127.095 47.1301 128.521 43.2703C130.028 39.4108 132.205 35.9844 135.057 32.9912C137.909 29.9982 141.396 27.6351 145.514 25.9021C149.714 24.1693 154.468 23.3027 159.775 23.3027C165.085 23.3027 169.797 24.1693 173.916 25.9021C178.038 27.6351 181.522 29.9982 184.374 32.9912C187.226 35.9844 189.405 39.4108 190.91 43.2703C192.417 47.1301 193.167 51.226 193.167 55.5581C193.167 59.8115 192.417 63.8682 190.91 67.7277C189.405 71.5875 187.226 75.0139 184.374 78.0069C181.522 81.0001 178.038 83.3631 173.916 85.0959C169.797 86.829 165.085 87.6953 159.775 87.6953ZM145.871 55.5581C145.871 58.7876 146.465 61.6233 147.653 64.065C148.923 66.507 150.587 68.3974 152.644 69.7362C154.705 71.0754 157.082 71.7448 159.775 71.7448C162.389 71.7448 164.728 71.0754 166.786 69.7362C168.925 68.3184 170.589 66.3888 171.777 63.9468C172.965 61.5051 173.56 58.709 173.56 55.5581C173.56 52.3288 172.965 49.4932 171.777 47.0512C170.589 44.6095 168.925 42.7191 166.786 41.3799C164.728 40.0411 162.389 39.3713 159.775 39.3713C157.082 39.3713 154.705 40.0411 152.644 41.3799C150.587 42.7191 148.923 44.6095 147.653 47.0512C146.465 49.4932 145.871 52.3288 145.871 55.5581Z" fill="white"/>
<path d="M121.337 40.6769C116.743 40.6769 112.584 41.425 108.859 42.9218C105.135 44.3396 102.442 46.4663 100.778 49.3019V86.5196H81.7646V24.4901H99.2335V37.0142C101.373 32.8394 104.146 29.5706 107.552 27.2076C110.958 24.8446 114.523 23.6236 118.247 23.5449C119.12 23.5449 119.751 23.5449 120.149 23.5449C120.624 23.5449 121.021 23.5841 121.337 23.6631V40.6769Z" fill="white"/>
<path d="M8.08105 86.5174V2.62988H44.088C48.1284 2.62988 51.8123 3.45694 55.1397 5.11106C58.5453 6.68651 61.4785 8.85272 63.9335 11.6094C66.3885 14.2877 68.2899 17.3201 69.6376 20.7071C70.9854 24.0943 71.6578 27.5598 71.6578 31.1044C71.6578 35.9094 70.51 40.4778 68.2116 44.8099C65.9943 49.1424 62.864 52.6869 58.8236 55.4436C54.8614 58.1219 50.1486 59.4607 44.6821 59.4607H27.5701V86.5174H8.08105ZM27.5701 42.5651H43.4938C44.9981 42.5651 46.3864 42.1319 47.653 41.2654C48.9197 40.3992 49.9515 39.0995 50.7428 37.3664C51.534 35.6336 51.9311 33.5069 51.9311 30.9862C51.9311 28.3869 51.4558 26.2602 50.5051 24.6061C49.6327 22.8733 48.4849 21.6131 47.0589 20.8252C45.7111 20.0376 44.2851 19.6437 42.7808 19.6437H27.5701V42.5651Z" fill="white"/>
</g>
<defs>
<filter id="filter0_d_194_1280" x="-1" y="0" width="916" height="115.383" filterUnits="userSpaceOnUse" color-interpolation-filters="sRGB">
<feFlood flood-opacity="0" result="BackgroundImageFix"/>
<feColorMatrix in="SourceAlpha" type="matrix" values="0 0 0 0 0 0 0 0 0 0 0 0 0 0 0 0 0 0 127 0" result="hardAlpha"/>
<feOffset dy="4"/>
<feGaussianBlur stdDeviation="0.5"/>
<feComposite in2="hardAlpha" operator="out"/>
<feColorMatrix type="matrix" values="0 0 0 0 0.594858 0 0 0 0 0.263685 0 0 0 0 0.0870592 0 0 0 1 0"/>
<feBlend mode="normal" in2="BackgroundImageFix" result="effect1_dropShadow_194_1280"/>
<feBlend mode="normal" in="SourceGraphic" in2="effect1_dropShadow_194_1280" result="shape"/>
</filter>
</defs>
</svg>
